#!OML:ASF F:\twosubjects\two\Thursday\Session 1\justin.ASF
:FULLY-SPECIFIED
:DEGREES
762
root 21.9036 13.0064 3.16818 -196.495 -87.3552 170.12
lowerback 25.8264 4.0852 -1.8603
upperback 11.7414 3.71445 -0.161384
thorax -1.40479 1.29797 -0.0763589
lowerneck -24.5587 1.96243 -7.00651
upperneck 17.1884 5.00678 0.542723
head 9.25591 1.89511 2.04518
rclavicle 1.92821e-014 -2.14687e-014
rhumerus -6.8358 19.8479 -88.4122
rradius 48.5454
rwrist 9.2682
rhand -15.2084 25.7635
rfingers 7.12502
rthumb 10.9637 -3.9302
lclavicle 1.92821e-014 -2.14687e-014
lhumerus 15.2975 -35.0292 79.1117
lradius 51.8897
lwrist -0.826909
lhand 20.0046 58.6375
lfingers 7.12502
lthumb 44.5394 82.3162
rfemur -43.4144 -4.2818 12.0807
rtibia 64.3601
rfoot 6.0269 -7.08948
rtoes -2.81133
lfemur -42.0229 6.33729 -10.0274
ltibia 60.5561
lfoot 10.2657 -15.0688
ltoes 2.58709
763
root 21.9002 13.0051 3.16852 -197.231 -87.3381 170.966
lowerback 25.6554 4.09059 -2.00982
upperback 11.7192 3.70116 -0.139683
thorax -1.35962 1.28824 0.0417982
lowerneck -24.7465 1.85611 -7.35803
upperneck 17.552 4.95717 0.79187
head 9.40205 1.86307 2.19166
rclavicle 9.93923e-017 -1.11319e-014
rhumerus -6.69204 20.4455 -88.261
rradius 48.3264
rwrist 9.01213
rhand -14.8955 25.7464
rfingers 7.12502
rthumb 11.2655 -3.93112
lclavicle 9.93923e-017 -1.11319e-014
lhumerus 16.8694 -35.369 78.0347
lradius 51.8115
lwrist 1.09629
lhand 20.773 58.4722
lfingers 7.12502
lthumb 45.2545 81.8709
rfemur -43.5872 -4.31919 12.1574
rtibia 64.4391
rfoot 6.1012 -6.9587
rtoes -4.27115
lfemur -42.1248 6.35647 -10.0639
ltibia 60.4948
lfoot 10.1158 -14.8403
ltoes 2.20012
764
root 21.8961 13 3.16817 -198.067 -87.2374 171.967
lowerback 25.404 4.09896 -2.45976
upperback 11.6942 3.63511 0.0268518
thorax -1.306 1.23678 0.502393
lowerneck -24.8961 1.89444 -7.40293
upperneck 17.8657 5.11256 0.506165
head 9.54183 1.88056 2.13033
rclavicle -1.80894e-014 3.97569e-016
rhumerus -6.52823 21.4073 -87.9442
rradius 48.1636
rwrist 8.77603
rhand -14.6346 25.9939
rfingers 7.12502
rthumb 11.5171 -3.66968
lclavicle -1.80894e-014 3.97569e-016
lhumerus 18.5252 -35.6193 76.8295
lradius 51.7595
lwrist 3.30379
lhand 20.5744 58.9601
lfingers 7.12502
lthumb 45.0698 82.4321
rfemur -43.8356 -4.22967 12.2507
rtibia 64.5428
rfoot 5.98817 -6.955
rtoes -4.1208
lfemur -42.3097 6.56706 -10.0637
ltibia 60.4972
lfoot 9.98498 -14.7602
ltoes 1.81369
765
root 21.892 12.994 3.16784 -198.216 -87.1652 172.189
lowerback 25.2727 4.09192 -2.904
upperback 11.6626 3.54088 0.130953
thorax -1.3084 1.17201 0.894388
lowerneck -24.9934 1.93351 -7.47824
upperneck 18.1564 5.22354 0.452923
head 9.65771 1.90598 2.14753
rclavicle 1.49089e-014 -3.10104e-014
rhumerus -6.34756 22.0879 -87.84
rradius 47.8258
rwrist 8.89459
rhand -14.2026 26.018
rfingers 7.12502
rthumb 11.9338 -3.62182
lclavicle 1.49089e-014 -3.10104e-014
lhumerus 20.186 -35.7404 75.7828
lradius 51.3832
lwrist 5.37275
lhand 19.5352 59.3809
lfingers 7.12502
lthumb 44.1018 83.2257
rfemur -43.9579 -4.14068 12.2659
rtibia 64.6363
rfoot 5.87003 -7.0045
rtoes -3.50421
lfemur -42.4515 7.03245 -10.0921
ltibia 60.5579
lfoot 10.0779 -15.1274
ltoes 1.81007
766
root 21.8848 12.9893 3.16751 -198.745 -87.1755 172.77
lowerback 25.1513 4.0364 -3.08858
upperback 11.6451 3.43818 0.143939
thorax -1.27719 1.11514 1.04368
lowerneck -25.0489 1.87269 -7.7682
upperneck 18.4306 5.17783 0.803388
head 9.7474 1.89693 2.31726
rclavicle 3.76697e-014 -2.54444e-014
rhumerus -6.21355 22.7866 -87.6815
rradius 47.6402
rwrist 8.74349
rhand -15.0336 24.749
rfingers 7.12502
rthumb 11.1323 -4.93573
lclavicle 3.76697e-014 -2.54444e-014
lhumerus 21.9343 -35.9577 74.8604
lradius 50.8006
lwrist 7.51214
lhand 17.6831 60.342
lfingers 7.12502
lthumb 42.3709 84.8065
rfemur -44.0393 -4.19485 12.2916
rtibia 64.7248
rfoot 5.83827 -6.99277
rtoes -3.62142
lfemur -42.5574 7.38883 -10.1449
ltibia 60.6064
lfoot 10.1063 -15.3706
ltoes 1.84879
767
root 21.8807 12.9906 3.1668 -199.079 -87.1671 173.174
lowerback 25.0847 4.02005 -3.08924
upperback 11.6224 3.42157 0.0941306
thorax -1.26707 1.11029 0.996753
lowerneck -24.9473 1.81526 -7.91025
upperneck 18.4505 5.12617 0.863208
head 9.73411 1.86978 2.35168
rclavicle 2.23633e-014 -3.97569e-015
rhumerus -6.12371 23.2961 -87.5989
rradius 47.517
rwrist 8.44614
rhand -16.7918 23.8516
rfingers 7.12502
rthumb 9.43624 -5.91714
lclavicle 2.23633e-014 -3.97569e-015
lhumerus 23.8134 -36.3352 73.7105
lradius 50.6226
lwrist 9.97341
lhand 16.9538 60.212
lfingers 7.12502
lthumb 41.6874 84.9059
rfemur -44.1393 -4.2384 12.347
rtibia 64.8019
rfoot 5.81876 -7.00478
rtoes -4.50623
lfemur -42.598 7.27205 -10.1174
ltibia 60.59
lfoot 10.0787 -15.2447
ltoes 2.05246
768
root 21.8739 12.9891 3.16618 -196.82 -87.1651 170.932
lowerback 25.0793 4.05079 -3.36901
upperback 11.5855 3.40018 0.0640293
thorax -1.31705 1.09184 1.12723
lowerneck -24.713 1.93881 -7.96728
upperneck 18.4165 5.30256 0.810834
head 9.6732 1.94265 2.36196
rclavicle -5.86415e-015 -1.19271e-014
rhumerus -6.03879 23.2464 -87.9964
rradius 47.0858
rwrist 8.73408
rhand -16.8843 24.6721
rfingers 7.12502
rthumb 9.34695 -5.1007
lclavicle -5.86415e-015 -1.19271e-014
lhumerus 25.5219 -36.2826 72.7789
lradius 50.439
lwrist 12.4481
lhand 17.3782 58.3538
lfingers 7.12502
lthumb 42.0853 82.9152
rfemur -44.2012 -4.20728 12.2301
rtibia 64.8921
rfoot 5.75973 -7.088
rtoes -4.41877
lfemur -42.5647 7.34989 -10.3349
ltibia 60.549
lfoot 9.60953 -15.5559
ltoes -0.144405
769
root 21.8614 12.9805 3.16817 -194.188 -87.1815 168.334
lowerback 25.1041 4.09266 -3.80355
upperback 11.4957 3.36463 0.100715
thorax -1.45075 1.063 1.4186
lowerneck -24.4519 2.03086 -7.86137
upperneck 18.5126 5.3829 0.746912
head 9.66307 1.97661 2.33116
rclavicle 5.32743e-014 -3.69739e-014
rhumerus -6.1388 23.1743 -88.3228
rradius 46.7661
rwrist 9.19307
rhand -17.0801 25.0319
rfingers 7.12502
rthumb 9.15801 -4.74924
lclavicle 5.32743e-014 -3.69739e-014
lhumerus 27.1213 -36.2471 71.9776
lradius 50.065
lwrist 14.7237
lhand 17.1045 57.6389
lfingers 7.12502
lthumb 41.8287 82.2861
rfemur -44.309 -4.26152 12.0598
rtibia 65.0462
rfoot 5.67507 -7.03763
rtoes -3.8577
lfemur -42.6396 7.94757 -10.88
ltibia 60.438
lfoot 7.8534 -17.1169
ltoes -10.7324
770
root 21.8658 12.9927 3.17049 -191.937 -87.2066 166.208
lowerback 25.0863 4.10814 -4.14703
upperback 11.4111 3.31648 0.102906
thorax -1.55002 1.03292 1.62658
lowerneck -24.5279 1.93585 -7.8481
upperneck 18.8144 5.24745 0.824097
head 9.78819 1.91131 2.34554
rclavicle -1.53064e-014 1.51076e-014
rhumerus -6.13113 23.2625 -88.4063
rradius 46.5159
rwrist 9.58339
rhand -17.9621 24.735
rfingers 7.12502
rthumb 8.30692 -5.08169
lclavicle -1.53064e-014 1.51076e-014
lhumerus 28.9398 -36.3234 70.9432
lradius 49.6705
lwrist 16.5827
lhand 15.8843 57.8973
lfingers 7.12502
lthumb 40.6834 82.9135
rfemur -44.4437 -4.38845 11.9344
rtibia 65.0948
rfoot 5.61141 -6.91436
rtoes -3.64939
lfemur -42.7078 7.54523 -10.7113
ltibia 60.5444
lfoot 8.75102 -16.4662
ltoes -5.75836
771
root 21.8584 12.9914 3.17379 -190.92 -87.1905 165.383
lowerback 24.9111 4.05027 -4.42049
upperback 11.391 3.19771 0.130431
thorax -1.4958 0.965234 1.84784
lowerneck -25.0018 1.74305 -8.36498
upperneck 19.3248 5.14887 1.17356
head 10.0351 1.84598 2.55854
rclavicle -1.50082e-014 -1.59028e-015
rhumerus -5.92254 23.56 -88.3521
rradius 46.3325
rwrist 9.40781
rhand -17.5892 24.8003
rfingers 7.12502
rthumb 8.66674 -5.00184
lclavicle -1.50082e-014 -1.59028e-015
lhumerus 30.7708 -35.9174 70.2583
lradius 49.0884
lwrist 17.99
lhand 13.6168 57.3128
lfingers 7.12502
lthumb 38.5481 82.9608
rfemur -44.742 -4.43331 11.8347
rtibia 65.1968
rfoot 5.47505 -6.90677
rtoes -2.44819
lfemur -42.9819 7.6724 -10.9728
ltibia 60.6295
lfoot 7.42178 -17.1401
ltoes -12.3218
772
root 21.8593 13.0014 3.18061 -191.132 -87.1124 165.711
lowerback 24.8733 4.04217 -4.49867
upperback 11.3561 3.17721 0.165308
thorax -1.52051 0.954127 1.93571
lowerneck -25.2469 1.59415 -8.67508
upperneck 19.6675 5.09609 1.15907
head 10.1999 1.77711 2.60788
rclavicle 4.37326e-014 -2.38542e-014
rhumerus -5.96661 23.692 -88.2549
rradius 46.4063
rwrist 8.83193
rhand -17.2834 25.3787
rfingers 7.12502
rthumb 8.9619 -4.41092
lclavicle 4.37326e-014 -2.38542e-014
lhumerus 32.5625 -35.749 69.7746
lradius 48.4472
lwrist 19.07
lhand 10.8321 56.8076
lfingers 7.12502
lthumb 35.9151 83.145
rfemur -44.7861 -4.48271 11.8936
rtibia 65.1711
rfoot 5.34804 -6.89753
rtoes -2.28971
lfemur -43.0911 7.55986 -10.687
ltibia 60.8802
lfoot 8.09705 -17.1433
ltoes -8.569
773
root 21.8565 13.0061 3.18619 -191.118 -87.0406 165.734
lowerback 25.01 4.04833 -4.42512
upperback 11.3163 3.18646 0.0650802
thorax -1.62156 0.965756 1.77808
lowerneck -25.263 1.64405 -8.4699
upperneck 19.7982 5.15238 0.923756
head 10.2611 1.7809 2.50307
rclavicle -2.03754e-014 2.50469e-014
rhumerus -5.99214 23.405 -88.4812
rradius 46.2856
rwrist 8.91506
rhand -17.4661 25.6425
rfingers 7.12502
rthumb 8.7856 -4.15463
lclavicle -2.03754e-014 2.50469e-014
lhumerus 34.5119 -35.9223 68.777
lradius 47.9724
lwrist 20.0891
lhand 9.30499 56.844
lfingers 7.12502
lthumb 34.4668 83.5229
rfemur -44.7603 -4.64405 11.9951
rtibia 65.1627
rfoot 5.34238 -6.75735
rtoes -3.09518
lfemur -43.1644 7.53382 -10.5827
ltibia 61.051
lfoot 8.10045 -17.3526
ltoes -8.57529
774
root 21.854 13.0094 3.18941 -192.483 -86.9389 167.202
lowerback 25.1467 3.92427 -4.34472
upperback 11.2284 3.02768 -0.11002
thorax -1.76144 0.898451 1.57942
lowerneck -25.5844 1.74891 -8.15737
upperneck 20.2667 5.24385 0.874537
head 10.4935 1.81721 2.46775
rclavicle 1.77912e-014 7.95139e-016
rhumerus -5.90842 23.4479 -88.9591
rradius 46.0925
rwrist 9.08879
rhand -17.7515 25.2361
rfingers 7.12502
rthumb 8.51014 -4.57239
lclavicle 1.77912e-014 7.95139e-016
lhumerus 36.3506 -35.65 67.6435
lradius 47.5302
lwrist 21.156
lhand 9.11437 56.9908
lfingers 7.12502
lthumb 34.2859 83.7106
rfemur -44.9933 -4.68552 12.0783
rtibia 65.1913
rfoot 5.81895 -6.20896
rtoes -5.48886
lfemur -43.3133 7.72819 -10.4963
ltibia 61.2231
lfoot 8.08324 -17.3786
ltoes -7.47533
